<svg width="24" height="24" viewBox="0 0 24 24" fill="none" xmlns="http://www.w3.org/2000/svg">
<path fill-rule="evenodd" clip-rule="evenodd" d="M11.8302 0.0530197L11.7364 0.0681394L11.6135 0.128345L11.4906 0.188568L11.41 0.269099L11.3295 0.34963L11.2705 0.441713L11.2116 0.53378L11.1656 0.660114L11.1195 0.786447L11.0013 0.846585L10.8831 0.906723L10.8012 0.986537L10.7192 1.06637L10.6688 1.16876L10.6183 1.27115L10.5929 1.4162L10.5674 1.56126L10.5674 1.69138L10.5674 1.8215L10.5141 1.83217L10.4607 1.84283H10.3891H10.3174L10.1282 1.87691L9.93893 1.91097L9.71135 1.96328L9.48376 2.01557L9.21419 2.09149L8.94461 2.16741L8.73983 2.23586L8.53505 2.30433L8.35238 2.3737L8.16974 2.44307L7.94789 2.53706L7.72604 2.63106L7.39327 2.79741L7.0605 2.96376L6.80452 3.11388L6.54854 3.26399L6.30052 3.42942L6.05251 3.59485L5.91655 3.6948L5.78061 3.79477L5.61849 3.92318L5.45637 4.05161L5.33265 4.15947L5.20893 4.26734V4.2081V4.14885L5.19321 4.10752L5.17749 4.06617L5.03264 4.02984L4.88781 3.99353L4.67719 3.95834L4.46659 3.92316L4.20974 3.91299L3.95289 3.90282L3.87238 3.91491L3.79188 3.92697L3.74526 3.96702L3.69866 4.00707L3.69304 4.22971L3.68745 4.45232L3.7412 4.83277L3.79497 5.21321L3.81813 5.30439L3.84131 5.39558L3.87074 5.42811L3.9002 5.46065H3.96581H4.03143V5.47018V5.4797L3.86352 5.69629L3.69562 5.91288L3.55852 6.10913L3.4214 6.30538L3.29358 6.51016L3.16578 6.71494L3.06713 6.8856L2.96845 7.05625L2.82898 7.32929L2.68951 7.60233L2.57736 7.85831L2.4652 8.11429L2.35343 8.41293L2.24163 8.71157L2.15578 8.99644L2.06992 9.28129L2.01842 9.48532L1.96692 9.68934L1.90767 9.98545L1.84842 10.2816L1.81376 10.529L1.77911 10.7765L1.76995 10.8447L1.7608 10.913L1.62903 10.9169L1.49725 10.9208L1.37779 10.9569L1.25834 10.9929L1.14193 11.0538L1.02552 11.1147L0.939882 11.1917L0.854249 11.2687L0.803446 11.2743L0.752626 11.2798L0.62462 11.3331L0.496597 11.3864L0.396151 11.4535L0.295706 11.5206L0.215533 11.6093L0.135361 11.698L0.0874079 11.8004L0.0394718 11.9028L0.0197274 12.0236L0 12.1445L0.0208195 12.268L0.0416561 12.3915L0.0988245 12.5055L0.155993 12.6195L0.246404 12.7081L0.336816 12.7967L0.437074 12.8567L0.537314 12.9168L0.645883 12.9529L0.754435 12.989L0.815835 13.1059L0.877236 13.2227L0.976811 13.3221L1.07639 13.4216L1.17105 13.4788L1.26572 13.5359L1.44121 13.5948L1.6167 13.6537L1.72585 13.6486L1.83502 13.6434L1.89055 13.9335L1.94608 14.2236L1.991 14.4113L2.03591 14.5991L2.10499 14.838L2.17407 15.0769L2.24223 15.2809L2.3104 15.485L2.39257 15.699L2.47473 15.9131L2.56382 16.1179L2.6529 16.3226L2.82977 16.6725L3.00663 17.0223L3.16655 17.2884L3.32648 17.5544L3.4691 17.7648L3.61171 17.9753L3.77038 18.1878L3.92904 18.4004V18.4067V18.413L3.81997 18.4088L3.71091 18.4046L3.67485 18.4372L3.63879 18.4698L3.62241 18.531L3.60604 18.5923L3.55266 18.9422L3.49928 19.292L3.4901 19.5403L3.48092 19.7886L3.50908 19.843L3.53725 19.8975L3.58123 19.9263L3.62521 19.9551L3.80699 19.9625L3.98877 19.9698L4.22396 19.9426L4.45915 19.9153L4.63352 19.8805L4.80789 19.8456L4.89778 19.8181L4.98764 19.7906L4.99566 19.7546L5.00368 19.7186L5.00817 19.6419L5.01268 19.5651L5.11507 19.6594L5.21746 19.7537L5.43077 19.9315L5.64409 20.1092L5.84887 20.2615L6.05365 20.4137L6.31816 20.5889L6.58267 20.7641L6.82159 20.9043L7.0605 21.0445L7.47006 21.2462L7.87963 21.448L8.17866 21.5668L8.47769 21.6856L8.80154 21.7914L9.12539 21.8972L9.41549 21.9718L9.7056 22.0465L9.96158 22.0988L10.2176 22.1511L10.5333 22.1977L10.849 22.2443L10.8604 22.3808L10.8719 22.5173L10.9257 22.6658L10.9796 22.8144L11.0637 22.934L11.1477 23.0537L11.1795 23.0707L11.2113 23.0877L11.22 23.1646L11.2286 23.2415L11.3151 23.4186L11.4016 23.5957L11.5111 23.709L11.6206 23.8223L11.7339 23.8754L11.8473 23.9284L11.9681 23.9471L12.0889 23.9658L12.206 23.9457L12.3231 23.9256L12.4137 23.8853L12.5043 23.8449L12.5918 23.7754L12.6794 23.7058L12.7657 23.5767L12.8521 23.4475L12.8894 23.3317L12.9267 23.2159L13.0712 23.1397L13.2158 23.0634L13.2829 22.9837L13.3499 22.904L13.3984 22.796L13.4468 22.688L13.4668 22.5258L13.4869 22.3637L13.4905 22.2785L13.4941 22.1934L13.5879 22.1806L13.6818 22.1677L13.9548 22.1153L14.2279 22.0628L14.4668 22.0034L14.7057 21.944L14.9702 21.8657L15.2347 21.7875L15.5163 21.6854L15.7979 21.5833L16.0368 21.4815L16.2757 21.3798L16.5658 21.2373L16.8559 21.0949L17.1267 20.9394L17.3976 20.7839L17.6216 20.6374L17.8457 20.4909L18.0419 20.3486L18.2382 20.2064L18.4003 20.078L18.5624 19.9496L18.5752 19.9493L18.588 19.949V20.0413V20.1337L18.6383 20.176L18.6885 20.2182L18.8303 20.2363L18.972 20.2544L19.2109 20.2843L19.4498 20.3142L19.7143 20.315L19.9788 20.3159L20.0351 20.2922L20.0914 20.2684L20.1162 20.2205L20.141 20.1725V19.9681V19.7638L20.1231 19.6303L20.1052 19.4968L20.071 19.3124L20.0369 19.128L19.994 18.98L19.9511 18.832L19.9423 18.8232L19.9335 18.8143L19.8433 18.8057L19.7531 18.7971L19.9231 18.5923L20.0931 18.3875L20.2345 18.1998L20.3759 18.0121L20.5427 17.7664L20.7096 17.5208L20.8785 17.2374L21.0474 16.9541L21.2336 16.5786L21.4199 16.2032L21.533 15.9301L21.646 15.6571L21.7798 15.2561L21.9134 14.855L22.0001 14.5074L22.0868 14.1598L22.1373 13.8845L22.1878 13.6093L22.2011 13.5098L22.2144 13.4104L22.368 13.4051L22.5216 13.3998L22.6581 13.354L22.7946 13.3081L22.8788 13.2624L22.963 13.2168L23.0494 13.1395L23.1359 13.0622L23.2212 13.0409L23.3066 13.0196L23.4615 12.9454L23.6164 12.8712L23.7276 12.7672L23.8388 12.6632L23.8935 12.5606L23.9482 12.4579L23.9741 12.3339L24 12.2099L23.9883 12.1085L23.9765 12.007L23.9444 11.9136L23.9122 11.8202L23.859 11.7372L23.8057 11.6543L23.7193 11.5787L23.6329 11.5031L23.5335 11.4501L23.4342 11.3971L23.3447 11.3669L23.2554 11.3366L23.1761 11.1932L23.0969 11.0498L23.0225 10.9832L22.9482 10.9166L22.8599 10.8757L22.7717 10.8349L22.6466 10.8081L22.5216 10.7813L22.3814 10.7806L22.2413 10.7799L22.231 10.7014L22.2208 10.6229L22.1716 10.3217L22.1225 10.0205L22.0603 9.74145L21.9981 9.46244L21.9048 9.1382L21.8114 8.81396L21.7894 8.77983L21.7674 8.7457L21.7196 8.60065L21.6718 8.45559L21.553 8.15695L21.4342 7.85831L21.2842 7.54778L21.1341 7.23724L21.0191 7.02729L20.9041 6.81734L20.7499 6.56989L20.5957 6.32244L20.4776 6.15306L20.3594 5.98368L20.3503 5.95988L20.3412 5.93607L20.4017 5.94744L20.4622 5.95879L20.4936 5.94884L20.5249 5.93887L20.5457 5.89175L20.5664 5.84462L20.6262 5.65953L20.6861 5.47444L20.7285 5.2841L20.7709 5.09375L20.7894 4.97653L20.8078 4.85931L20.8099 4.7155L20.812 4.57171L20.7778 4.52555L20.7435 4.4794L20.6769 4.45391L20.6103 4.42843L20.0898 4.43125L19.5693 4.43408L19.4523 4.45144L19.3354 4.46881L19.3048 4.49647L19.2742 4.52413L19.2627 4.60067L19.2513 4.67722L19.0981 4.53565L18.945 4.39408L18.711 4.1914L18.4771 3.98873L18.2093 3.78705L17.9414 3.58538L17.74 3.45083L17.5385 3.31629L17.3423 3.19694L17.146 3.07758L16.9183 2.95315L16.6906 2.82871L16.4575 2.71783L16.2245 2.60696L15.96 2.49669L15.6955 2.38639L15.4331 2.29305L15.1706 2.19972L14.8529 2.10806L14.5351 2.01642L14.262 1.9558L13.989 1.89521L13.7415 1.8536L13.4941 1.812L13.3472 1.79186L13.2003 1.77174L13.1903 1.62384L13.1803 1.47593L13.1476 1.38201L13.1148 1.28806L13.0596 1.17872L13.0045 1.06941L12.9232 0.98256L12.842 0.895716L12.8323 0.833359L12.8227 0.770986L12.7805 0.666479L12.7382 0.561955L12.681 0.467362L12.6237 0.372753L12.5316 0.279816L12.4395 0.186879L12.3183 0.127833L12.1971 0.0687708L12.0862 0.0514838L11.9753 0.0341797L11.9497 0.0360398L11.9241 0.037917L11.8302 0.0530197ZM11.1113 3.47145L11.1587 3.49596L11.2233 3.56748L11.288 3.639L11.3375 3.74499L11.3871 3.85098L11.4121 3.96895L11.4371 4.08691L11.4374 4.94064L11.4377 5.79436L11.378 6.07981L11.3183 6.36526L11.2837 6.52054L11.2491 6.6758L11.2679 6.77933L11.2867 6.88287L11.3698 7.14767L11.4529 7.41247L11.4452 7.4248L11.4376 7.43714L11.3139 7.45738L11.1903 7.4776L11.0183 7.51759L10.8463 7.55757L10.6537 7.61984L10.461 7.68211L10.28 7.75795L10.099 7.83381L9.91936 7.92884L9.73973 8.02388L9.55246 8.14588L9.36517 8.26788L9.22971 8.37453L9.09423 8.48119H9.08216H9.07008L7.64856 7.04681L6.22705 5.61245L6.2598 5.58144L6.29257 5.55045L6.48455 5.38601L6.67653 5.22159L6.88558 5.06565L7.09463 4.90972L7.24822 4.80631L7.4018 4.70287L7.64072 4.55995L7.87963 4.41701L8.20387 4.25735L8.5281 4.09769L8.80968 3.98738L9.09126 3.87705L9.3131 3.80531L9.53495 3.73357L9.82506 3.66021L10.1152 3.58684L10.3626 3.54218L10.6101 3.49751L10.7807 3.47425L10.9514 3.45099L11.0077 3.44897L11.064 3.44696L11.1113 3.47145ZM13.145 3.50568L13.4102 3.54727L13.6558 3.60106L13.9014 3.65485L14.1329 3.72053L14.3644 3.78623L14.5948 3.8654L14.8252 3.94456L15.0385 4.03004L15.2518 4.11551L15.5931 4.28331L15.9344 4.45111L16.1733 4.59405L16.4122 4.737L16.5743 4.8454L16.7365 4.9538L16.9583 5.12008L17.1802 5.28638L17.3508 5.42898L17.5215 5.57158L17.7992 5.84324L18.077 6.11491L18.0723 6.1265L18.0675 6.13807L16.7023 7.35475L15.3371 8.57141L15.2911 8.61392L15.2452 8.65642L15.1375 8.55851L15.0299 8.46061L14.8422 8.31967L14.6545 8.17871L14.5115 8.08951L14.3684 8.00031L14.1766 7.90164L13.9847 7.80295L13.765 7.71681L13.5453 7.63068L13.3661 7.57955L13.1869 7.52842L13.0511 7.49888L12.9153 7.46935L12.7269 7.44088L12.5384 7.4124L12.543 7.36869L12.5476 7.32497L12.6268 7.05408L12.706 6.7832L12.7058 6.74054L12.7057 6.69788L12.6092 6.30567L12.5128 5.91348L12.5133 5.23056L12.5137 4.54767L12.5293 4.25756L12.545 3.96745L12.589 3.81652L12.6331 3.66562L12.6578 3.61782L12.6825 3.57004L12.7355 3.51703L12.7885 3.46403L12.8341 3.46408L12.8797 3.46411L13.145 3.50568ZM8.04601 8.95149L8.34892 9.25885V9.26904V9.27921L8.22325 9.46858L8.0976 9.65795L7.9776 9.89298L7.8576 10.128L7.78063 10.3242L7.70365 10.5205L7.65171 10.6997L7.59976 10.8788L7.55718 11.0922L7.5146 11.3055L7.49721 11.4656L7.47982 11.6256L7.47196 11.6335L7.46409 11.6414L7.20257 11.5812L6.94104 11.521L6.78147 11.4922L6.62189 11.4634L6.45723 11.5156L6.29257 11.5677L6.10765 11.6219L5.92271 11.6761L5.18613 11.6673L4.44953 11.6586L4.25642 11.632L4.06332 11.6055L3.96138 11.5794L3.85943 11.5533L3.76775 11.5099L3.67608 11.4666L3.61268 11.3964L3.54929 11.3262L3.56096 11.1623L3.57265 10.9983L3.60572 10.738L3.63878 10.4776L3.69093 10.209L3.74306 9.94026L3.80944 9.68429L3.87583 9.42831L3.9468 9.20646L4.01776 8.98461L4.13524 8.68555L4.2527 8.38646L4.40502 8.07726L4.55733 7.76805L4.66383 7.58279L4.77033 7.39755L4.91503 7.1757L5.05974 6.95386L5.20495 6.75761L5.35017 6.56136L5.42536 6.47241L5.50055 6.38349L6.62184 7.5138L7.74311 8.64411L8.04601 8.95149ZM18.9699 7.24396L19.1296 7.48288L19.2696 7.72179L19.4097 7.9607L19.5602 8.26788L19.7108 8.57505L19.8306 8.87562L19.9504 9.17617L20.0291 9.42059L20.1078 9.66502L20.1751 9.92211L20.2424 10.1792L20.2937 10.4384L20.345 10.6975L20.371 10.8957L20.3969 11.0939V11.2051V11.3162L20.3074 11.4053L20.2178 11.4943L20.1171 11.5325L20.0165 11.5707L19.8612 11.5955L19.7058 11.6202L19.3389 11.6478L18.972 11.6753L18.5795 11.6781L18.187 11.6809L17.8884 11.5984L17.5897 11.5158L17.4888 11.4832L17.3878 11.4505H17.3324H17.2769L17.0408 11.5035L16.8047 11.5564L16.7462 11.5806L16.6878 11.6049L16.6766 11.5917L16.6655 11.5785L16.6451 11.4085L16.6247 11.2385L16.591 11.073L16.5572 10.9074L16.4982 10.7054L16.4392 10.5034L16.3703 10.3275L16.3015 10.1516L16.1827 9.91747L16.0639 9.68333L15.9949 9.57657L15.9259 9.46983L15.927 9.45759L15.9282 9.44537L16.4146 9.01021L16.9009 8.57505L17.817 7.74326L18.7331 6.91145L18.7717 6.95826L18.8103 7.00505L18.9699 7.24396ZM12.7432 8.49153L12.8968 8.51626L13.0881 8.56703L13.2793 8.6178L13.4578 8.68672L13.6363 8.75565L13.8041 8.84152L13.9719 8.92738L14.1852 9.07062L14.3985 9.21385L14.4555 9.26218L14.5126 9.31051L13.8967 9.86115L13.2807 10.4118L13.2328 10.4521L13.1848 10.4925L13.0749 10.4158L12.9651 10.3391L12.802 10.2573L12.6389 10.1755L12.5526 10.1534L12.4664 10.1313L12.4555 9.84806L12.4446 9.56483L12.4437 9.01874L12.4428 8.47266L12.4437 8.45965L12.4446 8.44665L12.5171 8.45674L12.5896 8.46682L12.7432 8.49153ZM11.5701 9.30358L11.5657 10.1259L11.4718 10.1544L11.378 10.1828L11.2701 10.2272L11.1621 10.2717L11.0778 10.3236L10.9935 10.3754H10.9698H10.946L10.3884 9.80511L9.83078 9.23481L9.82941 9.22062L9.82804 9.20646L9.99721 9.08979L10.1664 8.97311L10.4311 8.8414L10.6959 8.70971L10.9175 8.63602L11.1391 8.56232L11.3183 8.52322L11.4974 8.48413L11.536 8.48266L11.5746 8.48119L11.5701 9.30358ZM10.0918 11.0102L10.2795 11.2098L10.229 11.3686L10.1786 11.5273L10.167 11.6041L10.1553 11.6809L10.1469 11.7108L10.1385 11.7406H9.29489H8.45131L8.45138 11.6937L8.45145 11.6468L8.47773 11.4847L8.50399 11.3225L8.53713 11.1927L8.57027 11.0628L8.62364 10.9026L8.677 10.7423L8.78465 10.5166L8.89229 10.291L8.98892 10.1427L9.08552 9.99453L9.49481 10.4026L9.90412 10.8106L10.0918 11.0102ZM15.2605 10.1966L15.3483 10.3419L15.4305 10.5165L15.5126 10.6911L15.5736 10.8703L15.6345 11.0495L15.6694 11.1966L15.7042 11.3436L15.729 11.5201L15.7538 11.6966L15.7497 11.7007L15.7456 11.7048L15.1147 11.7184L14.4839 11.7321H14.1693H13.8548L13.833 11.6041L13.8111 11.4761L13.787 11.3967L13.7629 11.3172L14.294 10.8235L14.8252 10.3298L14.9787 10.1909L15.1323 10.0521L15.1525 10.0516L15.1727 10.0512L15.2605 10.1966ZM10.2801 12.6657L10.3285 12.7801L10.3808 12.8689L10.4331 12.9576L10.4021 12.9866L10.3711 13.0157L9.79093 13.5327L9.21071 14.0496L9.16274 14.0939L9.11479 14.1381L9.08138 14.0956L9.04796 14.053L8.96132 13.9114L8.87466 13.7698L8.79299 13.6042L8.71133 13.4386L8.64918 13.272L8.58705 13.1053L8.53742 12.8965L8.48778 12.6878L8.47672 12.6323L8.46566 12.5768L8.94912 12.5744L9.43256 12.5721L9.79093 12.5602L10.1493 12.5484L10.1905 12.5498L10.2318 12.5512L10.2801 12.6657ZM15.7092 12.5896L15.7164 12.6024L15.6921 12.7219L15.6678 12.8413L15.6175 13.015L15.5672 13.1886L15.4902 13.3726L15.4131 13.5566L15.3439 13.6853L15.2748 13.8141L15.1492 14.0018L15.0235 14.1895L14.9547 14.2663L14.8859 14.3431L14.2133 13.6605L13.5407 12.9779L13.5827 12.9096L13.6247 12.8413L13.6774 12.7304L13.73 12.6195L13.7372 12.611L13.7443 12.6024L14.1823 12.5933L14.6204 12.5842L15.1612 12.5805L15.702 12.5768L15.7092 12.5896ZM5.9792 12.6861L6.20724 12.7441L6.46714 12.797L6.72705 12.8499L6.85111 12.8494L6.97517 12.849L7.24438 12.7586L7.5136 12.6682L7.52078 12.7036L7.52798 12.739L7.56471 12.9263L7.60145 13.1137L7.64287 13.2591L7.68428 13.4045L7.75539 13.6004L7.8265 13.7963L7.95808 14.0612L8.08965 14.326L8.23636 14.5473L8.38305 14.7686V14.7804V14.7921L6.99836 16.0352L5.61368 17.2783L5.55516 17.3274L5.49666 17.3766L5.48274 17.3616L5.46881 17.3466L5.30147 17.1247L5.13413 16.9029L4.97737 16.6639L4.82062 16.425L4.68912 16.1947L4.55762 15.9643L4.42473 15.6912L4.29184 15.4182L4.19677 15.1878L4.10172 14.9574L4.00612 14.6759L3.91054 14.3943L3.84224 14.1468L3.77395 13.8994L3.70704 13.5666L3.64012 13.2338L3.62908 13.1229L3.61804 13.012L3.71402 12.9212L3.81001 12.8305L3.91644 12.7826L4.0229 12.7347L4.13382 12.7074L4.24474 12.68L4.44953 12.6626L4.65431 12.6451L4.73963 12.6396L4.82496 12.6342L5.28806 12.6311L5.75116 12.628L5.9792 12.6861ZM19.5425 12.6456L19.7376 12.6629L19.8497 12.6888L19.9618 12.7147L20.1275 12.8085L20.2932 12.9023L20.3528 12.975L20.4125 13.0477L20.3881 13.233L20.3638 13.4182L20.3294 13.6176L20.295 13.817L20.2431 14.0459L20.1911 14.2748L20.1239 14.5071L20.0566 14.7394L19.9734 14.9764L19.8903 15.2134L19.7988 15.4353L19.7074 15.6571L19.5587 15.9557L19.41 16.2544L19.267 16.4933L19.124 16.7322L19.0153 16.8943L18.9066 17.0564L18.7786 17.2271L18.6506 17.3978L18.547 17.5257L18.4433 17.6537L18.3773 17.7258L18.3114 17.798L17.2174 16.6934L16.1234 15.5888L15.844 15.3052L15.5646 15.0216L15.6802 14.8786L15.7959 14.7356L15.93 14.5308L16.0642 14.326L16.1828 14.0924L16.3015 13.8587L16.3703 13.6828L16.4392 13.5069L16.4982 13.3049L16.5572 13.1029L16.5914 12.9353L16.6255 12.7677V12.733V12.6983L16.6409 12.6888L16.6562 12.6793L16.9362 12.7473L17.2162 12.8152L17.292 12.8175L17.3679 12.8197L17.675 12.7492L17.9822 12.6787L18.0675 12.6549L18.1529 12.6311L18.7502 12.6297L19.3474 12.6283L19.5425 12.6456ZM11.42 13.7046L11.586 13.7572L11.5959 14.6729L11.6057 15.5886L11.5996 15.5947L11.5935 15.6008L11.4687 15.5805L11.3439 15.5602L11.1804 15.5195L11.017 15.4788L10.8391 15.4176L10.6613 15.3564L10.4394 15.2475L10.2176 15.1386L10.0426 15.0237L9.86772 14.9088V14.8959V14.8831L10.5546 14.2678L11.2415 13.6526L11.2477 13.6522L11.2539 13.6519L11.42 13.7046ZM13.3959 14.3387L14.0828 15.0255V15.0371V15.0487L13.9335 15.1342L13.7842 15.2196L13.6306 15.2902L13.477 15.3609L13.2552 15.4358L13.0333 15.5108L12.8178 15.5541L12.6024 15.5974H12.5514H12.5004L12.4877 14.6748L12.475 13.7523L12.4867 13.7407L12.4983 13.729L12.5952 13.6925L12.692 13.6559L12.7005 13.6539L12.7089 13.6519L13.3959 14.3387ZM9.33885 15.71L9.50082 15.8311L9.63734 15.9159L9.77386 16.0006L9.91892 16.0789L10.064 16.1572L10.2453 16.2344L10.4267 16.3117L10.572 16.363L10.7174 16.4143L10.9624 16.4752L11.2073 16.5362L11.3761 16.5612L11.5448 16.5862L11.5525 16.5938L11.5601 16.6015L11.5064 16.7522L11.4526 16.9029L11.396 17.065L11.3394 17.2271L11.3281 17.2954L11.3168 17.3636L11.3931 17.7135L11.4694 18.0633L11.4962 18.2058L11.523 18.3482L11.5246 19.0761L11.5263 19.8039L11.5066 19.9319L11.487 20.0599L11.4524 20.1708L11.4178 20.2818L11.369 20.3675L11.3202 20.4532L11.2805 20.4905L11.2408 20.5277L11.0449 20.5026L10.849 20.4774L10.6186 20.4354L10.3882 20.3934L10.1082 20.3244L9.82829 20.2553L9.54876 20.162L9.26923 20.0687L9.0096 19.9643L8.74995 19.86L8.44228 19.7112L8.1346 19.5625L7.90473 19.4293L7.67485 19.2962L7.453 19.15L7.23115 19.0038L7.01784 18.8423L6.80452 18.6809L6.65757 18.5564L6.51062 18.4319L6.36746 18.3009L6.2243 18.1698L6.21936 18.1572L6.21439 18.1445L7.44805 17.0439L8.68169 15.9432L8.90245 15.746L9.1232 15.5487L9.15005 15.5688L9.17689 15.5888L9.33885 15.71ZM16.1763 17.1346L17.5556 18.5183V18.5335V18.5487L17.4191 18.6628L17.2825 18.7769L17.0785 18.9297L16.8744 19.0824L16.7457 19.1693L16.617 19.2561L16.3952 19.3905L16.1733 19.5249L15.8235 19.6993L15.4736 19.8738L15.2091 19.9781L14.9446 20.0825L14.76 20.144L14.5754 20.2056L14.3668 20.2644L14.1581 20.3232L13.9285 20.3744L13.6989 20.4257L13.4855 20.4602L13.2722 20.4947L13.0516 20.5203L12.8309 20.546L12.798 20.5163L12.7651 20.4865L12.7232 20.4039L12.6812 20.3212L12.6461 20.1905L12.611 20.0599L12.5937 19.2493L12.5764 18.4387L12.5965 18.2961L12.6167 18.1535L12.6661 17.9548L12.7155 17.7561L12.7452 17.5509L12.7748 17.3457L12.7301 17.1499L12.6853 16.9541L12.6346 16.7706L12.5838 16.5872H12.5953H12.6067L12.8195 16.5524L13.0323 16.5177L13.1693 16.4831L13.3064 16.4484L13.4508 16.4047L13.5953 16.361L13.7788 16.2872L13.9623 16.2135L14.1804 16.1024L14.3985 15.9913L14.5777 15.8726L14.7569 15.7538L14.7769 15.7524L14.797 15.751L16.1763 17.1346Z" fill="#D9DEE1"/>
</svg>
