<svg width="20" height="20" viewBox="0 0 20 20" fill="none" xmlns="http://www.w3.org/2000/svg">
<path fill-rule="evenodd" clip-rule="evenodd" d="M6.38568 0.0823453L6.11375 0.152826L5.71821 0.337118L5.32267 0.52141L5.05766 0.736605L4.79264 0.9518L4.60847 1.1632L4.4243 1.37459L4.24191 1.66618L4.05946 1.95776L3.91539 2.38318L3.77126 2.80855L3.71223 3.22727L3.65319 3.64593L3.68464 4.13832L3.71604 4.6307L3.81428 5.04815L3.91252 5.4656L4.12661 5.96543L4.34069 6.46527L4.58133 6.84896L4.82196 7.23264L5.09706 7.58069L5.37211 7.92873L5.70842 8.28344L6.04468 8.63814L6.59838 9.09L7.15204 9.54187L7.77007 9.93137L8.3881 10.3209L8.98141 10.5981L9.57472 10.8754L9.73635 10.9362L9.89798 10.9969L10.0866 10.9729L10.2752 10.9489L10.9008 10.657L11.5264 10.365L12.108 10.0032L12.6896 9.64124L13.0604 9.35894L13.4312 9.07669L13.7894 8.76044L14.1477 8.44419L14.5168 8.02688L14.886 7.60957L15.126 7.26903L15.366 6.92849L15.5421 6.62368L15.7182 6.31887L15.8991 5.88689L16.0799 5.4549L16.1769 5.0428L16.2739 4.6307L16.3053 4.13832L16.3368 3.64593L16.2783 3.22389L16.2198 2.80185L16.0566 2.34675L15.8934 1.89164L15.7256 1.62899L15.5577 1.36634L15.3597 1.13759L15.1617 0.908846L14.8645 0.683006L14.5672 0.457166L14.2217 0.306638L13.8762 0.156156L13.5548 0.078078L13.2335 0L12.6649 0.0246192L12.0963 0.0492383L11.7007 0.173929L11.3052 0.298619L10.9838 0.464904L10.6625 0.631236L10.3287 0.865141L9.99498 1.09909L9.66125 0.865141L9.32751 0.631236L9.00613 0.464904L8.68476 0.298619L8.28922 0.17346L7.89368 0.0483004L7.27565 0.0301058L6.65762 0.0118642L6.38568 0.0823453ZM0.669143 12.1768L0.5 12.3372L0.513399 15.5336L0.526748 18.73L0.688227 18.8668L0.849707 19.0036H1.51881H2.18797L2.33773 18.9302L2.48754 18.8567L2.5578 18.6972L2.62805 18.5377V15.51V12.4824L2.55913 12.3259L2.49016 12.1694L2.37506 12.0929L2.25995 12.0165H1.54907H0.838236L0.669143 12.1768ZM3.66635 15.51V18.0188H4.16018H4.65396L7.0402 18.8712L9.42639 19.7235L9.77249 19.8394L10.1186 19.9554L10.6449 19.9777L11.1711 20L11.5369 19.9228L11.9028 19.8456L12.209 19.7083L12.5151 19.571L15.0992 17.9107L17.6833 16.2504L18.2555 15.8945L18.8277 15.5384L19.0307 15.3296L19.2337 15.1208L19.3403 14.9225L19.4469 14.7243L19.4734 14.4806L19.5 14.2369L19.4201 13.9761L19.3401 13.7153L19.1179 13.4809L18.8957 13.2465L18.6617 13.1421L18.4276 13.0378L18.0554 13.018L17.6833 12.9983L15.3595 13.5559L13.0357 14.1135L13.0449 14.1787L13.0541 14.2439L13.137 14.5253L13.2198 14.8066L13.1942 15.17L13.1686 15.5334L13.018 15.8387L12.8674 16.1439L12.6164 16.3956L12.3654 16.6473L12.0576 16.7911L11.7498 16.9348L11.4272 16.9837L11.1047 17.0325L10.8341 16.9906L10.5636 16.9487L9.42639 16.662L8.28922 16.3752L8.07805 16.3018L7.86683 16.2283L7.79375 16.0943L7.72063 15.9602V15.8383V15.7164L7.79108 15.5872L7.86154 15.4579L7.99118 15.4019L8.12082 15.3459H8.23127H8.34168L9.6257 15.6735L10.9097 16.0011L11.1322 16.0007L11.3547 16.0003L11.5559 15.9136L11.7572 15.8269L11.9074 15.6541L12.0576 15.4813L12.114 15.3027L12.1705 15.124L12.1702 15.0122L12.1699 14.9004L12.118 14.7233L12.0662 14.5461L11.9132 14.3809L11.7602 14.2157L11.61 14.142L11.4599 14.0683L11.0364 13.9606L10.613 13.8528L8.94018 13.427L7.26734 13.0012H5.46684H3.66635V15.51Z" fill="#D9DEE1"/>
</svg>
