<svg width="18" height="18" viewBox="0 0 18 18" fill="none" xmlns="http://www.w3.org/2000/svg">
<path d="M8.99995 2.19995C11.2 2.19995 11.5 2.19995 12.4 2.19995C13.2 2.19995 13.6 2.39995 13.9 2.49995C14.3 2.69995 14.6 2.79995 14.9 3.09995C15.2 3.39995 15.4 3.69995 15.5 4.09995C15.6 4.39995 15.7 4.79995 15.8 5.59995C15.8 6.49995 15.8 6.69995 15.8 8.99995C15.8 11.3 15.8 11.5 15.8 12.4C15.8 13.2 15.6 13.6 15.5 13.9C15.3 14.3 15.2 14.6 14.9 14.9C14.6 15.2 14.3 15.4 13.9 15.5C13.6 15.6 13.2 15.7 12.4 15.8C11.5 15.8 11.3 15.8 8.99995 15.8C6.69995 15.8 6.49995 15.8 5.59995 15.8C4.79995 15.8 4.39995 15.6 4.09995 15.5C3.69995 15.3 3.39995 15.2 3.09995 14.9C2.79995 14.6 2.59995 14.3 2.49995 13.9C2.39995 13.6 2.29995 13.2 2.19995 12.4C2.19995 11.5 2.19995 11.3 2.19995 8.99995C2.19995 6.69995 2.19995 6.49995 2.19995 5.59995C2.19995 4.79995 2.39995 4.39995 2.49995 4.09995C2.69995 3.69995 2.79995 3.39995 3.09995 3.09995C3.39995 2.79995 3.69995 2.59995 4.09995 2.49995C4.39995 2.39995 4.79995 2.29995 5.59995 2.19995C6.49995 2.19995 6.79995 2.19995 8.99995 2.19995ZM8.99995 0.699951C6.69995 0.699951 6.49995 0.699951 5.59995 0.699951C4.69995 0.699951 4.09995 0.899952 3.59995 1.09995C3.09995 1.29995 2.59995 1.59995 2.09995 2.09995C1.59995 2.59995 1.39995 2.99995 1.09995 3.59995C0.899952 4.09995 0.799951 4.69995 0.699951 5.59995C0.699951 6.49995 0.699951 6.79995 0.699951 8.99995C0.699951 11.3 0.699951 11.5 0.699951 12.4C0.699951 13.3 0.899952 13.9 1.09995 14.4C1.29995 14.9 1.59995 15.4 2.09995 15.9C2.59995 16.4 2.99995 16.6 3.59995 16.9C4.09995 17.1 4.69995 17.1999 5.59995 17.2999C6.49995 17.2999 6.79995 17.2999 8.99995 17.2999C11.2 17.2999 11.5 17.2999 12.4 17.2999C13.3 17.2999 13.9 17.1 14.4 16.9C14.9 16.7 15.4 16.4 15.9 15.9C16.4 15.4 16.6 15 16.9 14.4C17.1 13.9 17.1999 13.3 17.2999 12.4C17.2999 11.5 17.2999 11.2 17.2999 8.99995C17.2999 6.79995 17.2999 6.49995 17.2999 5.59995C17.2999 4.69995 17.1 4.09995 16.9 3.59995C16.7 3.09995 16.4 2.59995 15.9 2.09995C15.4 1.59995 15 1.39995 14.4 1.09995C13.9 0.899952 13.3 0.799951 12.4 0.699951C11.5 0.699951 11.3 0.699951 8.99995 0.699951Z" fill="white"/>
<path d="M8.99995 4.69995C6.59995 4.69995 4.69995 6.59995 4.69995 8.99995C4.69995 11.4 6.59995 13.3 8.99995 13.3C11.4 13.3 13.3 11.4 13.3 8.99995C13.3 6.59995 11.4 4.69995 8.99995 4.69995ZM8.99995 11.8C7.49995 11.8 6.19995 10.6 6.19995 8.99995C6.19995 7.49995 7.39995 6.19995 8.99995 6.19995C10.5 6.19995 11.8 7.39995 11.8 8.99995C11.8 10.5 10.5 11.8 8.99995 11.8Z" fill="white"/>
<path d="M13.4 5.59995C13.9522 5.59995 14.4 5.15224 14.4 4.59995C14.4 4.04767 13.9522 3.59995 13.4 3.59995C12.8477 3.59995 12.4 4.04767 12.4 4.59995C12.4 5.15224 12.8477 5.59995 13.4 5.59995Z" fill="white"/>
</svg>
