<svg width="24" height="16" viewBox="0 0 24 16" fill="none" xmlns="http://www.w3.org/2000/svg">
<path fill-rule="evenodd" clip-rule="evenodd" d="M11.53 0.74248L11.0854 1.12963L10.7623 1.50295L10.4391 1.87627L10.1151 2.36635L9.79114 2.85648L9.5397 3.37456L9.28825 3.89268L9.12033 4.34454L8.95245 4.79636L8.8317 5.25896L8.71095 5.72152L8.61791 6.26079L8.52483 6.80007L8.49683 7.45657L8.46884 8.11308L8.52455 8.62891L8.58021 9.14473L8.67132 9.56677L8.76244 9.98881L8.90692 10.4343L9.05139 10.8798L9.34832 11.4894L9.64521 12.099L9.94237 12.5301L10.2395 12.9611L10.5909 13.3691L10.9421 13.777L11.4528 14.2159L11.9633 14.6547H11.9967H12.03L12.5204 14.2383L13.0108 13.822L13.3751 13.406L13.7393 12.99L14.0863 12.4727L14.4332 11.9554L14.6868 11.4176L14.9404 10.8798L15.0868 10.4343L15.2332 9.98881L15.3249 9.56677L15.4166 9.14473L15.4715 8.60546L15.5263 8.06618L15.4978 7.43313L15.4692 6.80007L15.3968 6.35458L15.3244 5.90909L15.1834 5.35111L15.0424 4.79313L14.8742 4.3429L14.706 3.89268L14.5043 3.47064L14.3027 3.0486L14.0646 2.65395L13.8265 2.25924L13.5697 1.91805L13.3128 1.57681L13.0234 1.26736L12.7338 0.957861L12.3708 0.655024L12.0077 0.352234L11.9911 0.353781L11.9746 0.355329L11.53 0.74248ZM4.99981 1.7942L4.6543 2.48588L4.4793 3.01366L4.30429 3.54145L4.21388 3.97498L4.12342 4.40851L4.07517 4.83055L4.02692 5.25259L4.02654 5.73085L4.02617 6.20912L4.09651 6.74558L4.16685 7.28208L4.2853 7.73812L4.4038 8.19416L4.5713 8.64598L4.73885 9.09784L4.98223 9.56677L5.2256 10.0357L5.49327 10.4373L5.76089 10.8388L6.14945 11.2805L6.53796 11.7222L6.93505 12.0648L7.33215 12.4073L7.71254 12.6608L8.0929 12.9143L8.41543 13.0916L8.73796 13.2689L8.63184 13.106L8.52567 12.9431L8.2709 12.4976L8.01613 12.0521L7.78068 11.4645L7.54523 10.8769L7.4038 10.3391L7.26232 9.80124L7.18091 9.28541L7.09955 8.76958L7.10049 7.73793L7.10138 6.70628L7.18279 6.16701L7.26424 5.62773L7.40835 5.04157L7.55245 4.4554L7.74134 3.93957L7.93027 3.42375L8.13529 3.01437L8.34035 2.60499V2.56255V2.52011L7.97693 2.27688L7.61351 2.03359L7.00389 1.73451L6.39428 1.43538L5.88366 1.26895L5.37299 1.10253H5.3592H5.34537L4.99981 1.7942ZM18.0707 1.28246L17.5549 1.4591L17.0536 1.69863L16.5522 1.93821L16.104 2.22858L15.6557 2.51899V2.56222V2.60546L15.8235 2.93868L15.9913 3.27191L16.172 3.73535L16.3525 4.19885L16.4726 4.60846L16.5927 5.01812L16.6845 5.46361L16.7762 5.90909L16.836 6.33113L16.8958 6.75317L16.8966 7.73793L16.8973 8.72269L16.8338 9.16818L16.7702 9.61366L16.6384 10.1529L16.5066 10.6922L16.3799 11.0439L16.2533 11.3956L16.0553 11.8411L15.8574 12.2866L15.6483 12.6383L15.4392 12.99L15.3482 13.1294L15.2571 13.2688L15.5854 13.0896L15.9136 12.9105L16.2888 12.6591L16.6639 12.4076L17.0925 12.0337L17.5211 11.6598L17.8592 11.2697L18.1974 10.8798L18.5241 10.3919L18.8508 9.90398L19.0528 9.50093L19.2547 9.09784L19.4235 8.64598L19.5923 8.19416L19.7108 7.73812L19.8292 7.28208L19.8996 6.74558L19.9699 6.20912L19.9695 5.73085L19.9691 5.25259L19.9209 4.83055L19.8726 4.40851L19.7815 3.97174L19.6904 3.53502L19.5253 3.03388L19.3601 2.53277L19.0036 1.81765L18.6471 1.10253L18.6168 1.10417L18.5865 1.10576L18.0707 1.28246ZM2.47869 8.23791L2.26767 8.28236L1.8475 8.4034L1.42734 8.52443L0.982931 8.70937L0.538523 8.89432L0.269261 9.03026L0 9.16616L0.0960375 9.50717L0.192028 9.84813L0.374771 10.3082L0.557562 10.7682L0.698945 11.0483L0.840375 11.3284L1.0324 11.6422L1.22443 11.9559L1.48141 12.3034L1.73838 12.6509L2.12028 13.049L2.50213 13.4471L2.87728 13.7491L3.25243 14.0512L3.67447 14.3141L4.09651 14.577L4.56544 14.7996L5.03437 15.0222L5.43667 15.1626L5.83892 15.3029L6.37604 15.4234L6.91315 15.5438L7.49777 15.5957L8.08244 15.6476L8.55137 15.6175L9.0203 15.5873L9.44234 15.5193L9.86438 15.4513L10.1223 15.3891L10.3802 15.3269L10.1692 15.2712L9.95817 15.2156L9.37749 15.027L8.79676 14.8385L8.31517 14.6113L7.83353 14.3841L7.39526 14.1253L6.957 13.8665L6.55841 13.5703L6.15981 13.2743L5.65013 12.7804L5.1404 12.2866L4.86232 11.9475L4.58424 11.6083L4.27728 11.1503L3.97032 10.6922L3.65313 10.0523L3.33594 9.41235L3.13322 8.79786L2.9305 8.18342L2.81013 8.18844L2.68971 8.19345L2.47869 8.23791ZM20.8677 8.78328L20.6697 9.38314L20.3481 10.0377L20.0265 10.6922L19.715 11.1564L19.4036 11.6207L19.1059 11.977L18.8082 12.3335L18.3457 12.7806L17.8831 13.2277L17.508 13.5119L17.1328 13.7961L16.7343 14.0461L16.3357 14.2961L15.7729 14.5656L15.2102 14.8352L14.6241 15.0254L14.0379 15.2156L13.8269 15.2701L13.6158 15.3245L13.7565 15.3657L13.8972 15.407L14.413 15.4957L14.9289 15.5844L15.4212 15.6161L15.9136 15.6478L16.4998 15.5943L17.086 15.5408L17.6215 15.4219L18.1571 15.3029L18.5594 15.1636L18.9617 15.0244L19.5244 14.75L20.0871 14.4755L20.4857 14.2083L20.8843 13.9411L21.2035 13.6808L21.5226 13.4206L21.9069 13.0121L22.2911 12.6037L22.5568 12.2341L22.8224 11.8645L23.0224 11.5363L23.2224 11.208L23.442 10.7157L23.6617 10.2233L23.7571 9.94192L23.8526 9.66056L23.9263 9.41048L24 9.16035L23.4738 8.91111L22.9476 8.66187L22.5021 8.51256L22.0566 8.3633L21.6581 8.27439L21.2595 8.18543L21.1625 8.18445L21.0656 8.18342L20.8677 8.78328Z" fill="#D9DEE1"/>
</svg>
