<svg width="18" height="20" viewBox="0 0 18 20" fill="none" xmlns="http://www.w3.org/2000/svg">
<path fill-rule="evenodd" clip-rule="evenodd" d="M8.2579 0.105816L7.9338 0.208163L7.73005 0.326786L7.52635 0.445357L7.25854 0.70898L6.99073 0.972653L6.85893 1.23888L6.72714 1.5051L6.66118 1.85724L6.59523 2.20939L6.62284 2.82663L6.65046 3.44388L6.7657 3.73975L6.88088 4.03561L7.06807 4.2749L7.25526 4.51418L7.53841 4.72612L7.82156 4.93806L8.14622 5.05199L8.47093 5.16587L8.86426 5.19112L9.25764 5.21638L9.58658 5.12918L9.91557 5.04199L10.1844 4.90837L10.4534 4.77475L10.7222 4.50459L10.9911 4.23444L11.1313 3.96235L11.2715 3.6902L11.3293 3.36296L11.3872 3.03571L11.3866 2.55102L11.386 2.06633L11.3078 1.72735L11.2296 1.38837L11.1082 1.16985L10.9868 0.951378L10.7082 0.680918L10.4296 0.410459L10.2004 0.287347L9.97113 0.164184L9.66931 0.0820919L9.36755 0L8.97477 0.00168372L8.58205 0.00341844L8.2579 0.105816ZM6.22062 6.16398L5.85946 6.25066L5.59332 6.39398L5.32722 6.5373L5.12508 6.69975L4.923 6.86225L4.71925 7.15122L4.5155 7.44015L4.42527 7.73796L4.33503 8.03571L4.02343 9.89796L3.71184 11.7602L3.61393 11.9648L3.51603 12.1695L3.34534 12.3263L3.1746 12.483L1.90387 13.3031L0.633086 14.1231L0.552575 14.2613L0.472064 14.3994L0.477454 14.5891L0.482899 14.7789L0.581857 14.9176L0.680815 15.0562L0.836502 15.1302L0.99219 15.2041H1.20911H1.42608L3.0038 14.2034L4.58151 13.2027L4.73364 13.0719L4.88583 12.9412L4.91728 12.8503L4.94873 12.7593L5.33145 11.0608L5.71422 9.36225L5.85941 9.24745L6.00459 9.13265H6.17067H6.3368L6.47316 9.25791L6.60956 9.38311V12.337V15.2909L6.54633 15.4643L6.4831 15.6378L6.35025 15.8021L6.2174 15.9664L6.03004 16.0977L5.84268 16.2289L4.65763 16.6304L3.47264 17.0318L3.66589 17.0587L3.85919 17.0856L4.80376 17.1655L5.74834 17.2453L7.39828 17.4331L9.04823 17.6209L10.3987 17.4585L11.7492 17.2961L12.8882 17.1915L14.0272 17.087L14.2773 17.0586L14.5273 17.0302L13.2771 16.6049L12.027 16.1797L11.7744 15.9292L11.5218 15.6788L11.4549 15.4738L11.388 15.2688V12.326V9.38311L11.5244 9.25791L11.6608 9.13265H11.8269H11.993L12.1384 9.2475L12.2838 9.3624L12.6701 11.0715L13.0563 12.7806L13.0843 12.8618L13.1123 12.9431L13.2371 13.0507L13.3619 13.1583L14.96 13.9478L16.5582 14.7373L16.7138 14.7687L16.8695 14.8002L17.0319 14.7436L17.1943 14.6871L17.3195 14.5795L17.4445 14.4719L17.4955 14.3022L17.5465 14.1327L17.4958 13.9639L17.4451 13.7952L17.2919 13.666L17.1388 13.5368L15.9997 12.9556L14.8607 12.3743L14.6483 12.1983L14.4359 12.0222L14.3256 11.8237L14.2153 11.6252L13.9739 10.0601L13.7325 8.4949L13.6926 8.21714L13.6527 7.93944L13.548 7.66005L13.4433 7.38066L13.2705 7.13342L13.0978 6.88617L12.8453 6.68209L12.5928 6.47806L12.2543 6.32602L11.9158 6.17403L11.6166 6.1227L11.3173 6.07143L8.94955 6.07439L6.58178 6.0773L6.22062 6.16398ZM0.692094 17.9248L0.525405 17.9968L0.369995 18.1309L0.214585 18.2649L0.107292 18.4819L0 18.699V18.9286V19.1582L0.102903 19.3622L0.205806 19.5663L0.365605 19.7039L0.525405 19.8415L0.731988 19.9208L0.938572 20H4.10745H7.27632V19.9836V19.9671L7.1867 19.7257L7.09707 19.4841L7.11924 19.1642L7.14147 18.8443L7.2826 18.5824L7.42373 18.3206L7.2806 18.2928L7.13741 18.2651L6.19284 18.1646L5.24827 18.0641L4.27591 17.9856L3.30356 17.907L2.08117 17.8799L0.858783 17.8528L0.692094 17.9248ZM14.8885 17.9117L14.1939 17.9551L13.2216 18.0353L12.2492 18.1156L11.1102 18.243L9.97113 18.3705L9.28709 18.4681L8.60306 18.5657L8.43214 18.6579L8.26123 18.75L8.15772 18.9278L8.0542 19.1056L8.05443 19.2849L8.05459 19.4643L8.16505 19.6306L8.27546 19.7968L8.45654 19.8982L8.63762 19.9996L12.8604 19.9987L17.0832 19.9978L17.3055 19.9033L17.5277 19.8088L17.6776 19.662L17.8274 19.5153L17.9137 19.3256L18 19.1359V18.9147V18.6935L17.8593 18.4341L17.7185 18.1748L17.4892 18.0287L17.2599 17.8827L16.4215 17.8755L15.583 17.8684L14.8885 17.9117Z" fill="#D9DEE1"/>
</svg>
