<svg width="14" height="20" viewBox="0 0 14 20" fill="none" xmlns="http://www.w3.org/2000/svg">
<path fill-rule="evenodd" clip-rule="evenodd" d="M7.23895 0.0617578L7.02301 0.11832L6.77909 0.244727L6.5352 0.371094L6.3316 0.569258L6.12801 0.767422L6.01697 0.951992L5.90597 1.1366L5.82728 1.3593L5.74863 1.58203L5.72478 1.85652L5.70093 2.13105L5.75044 2.41699L5.79994 2.70293L5.96097 3.01648L6.12203 3.33004L6.35069 3.55285L6.57934 3.77566L6.79664 3.89617L7.01399 4.01668L7.25451 4.08508L7.49502 4.15348H7.79567H8.09631L8.33683 4.08508L8.57735 4.01668L8.77778 3.90523L8.97821 3.79379L9.14593 3.63621L9.31361 3.47863L9.4382 3.30223L9.56274 3.12582L9.66496 2.86172L9.76714 2.59766L9.78867 2.24609L9.81015 1.89453L9.74425 1.64062L9.67835 1.38672L9.55192 1.13281L9.42553 0.878906L9.16128 0.620508L8.89707 0.36207L8.6473 0.239219L8.39752 0.116328L8.16835 0.0581641L7.93918 0L7.69706 0.00257812L7.45494 0.00515625L7.23895 0.0617578ZM3.96183 4.60863L1.67136 4.9159L1.50889 4.99664L1.34646 5.07742L1.24889 5.20473L1.15132 5.33203L1.10686 5.46875L1.06241 5.60547L0.781404 7.26562L0.500401 8.92578L0.5002 9.02555L0.5 9.12527L0.603663 9.32801L0.707325 9.5307L0.818364 9.60773L0.929362 9.68476L1.11552 9.73332L1.30172 9.78184L1.49141 9.73238L1.6811 9.68297L1.80645 9.58977L1.93183 9.4966L1.99986 9.35684L2.06793 9.21707L2.36673 7.94145L2.66553 6.66578L2.68357 6.64824L2.70157 6.6307L3.89569 6.59879L5.08986 6.56687L5.3905 6.50996L5.69115 6.45305L5.70514 6.46609L5.71917 6.47914L5.52475 6.57441L5.33037 6.66965L5.07984 6.75805L4.8293 6.84641L4.82914 6.89L4.82898 6.93359L4.7276 7.61297L4.62618 8.29234L4.52404 8.76531L4.4219 9.23828L4.30365 9.66797L4.18539 10.0977L4.08101 10.4476L3.97663 10.7975L4.00617 12.8618L4.03571 14.9261L2.95932 16.8869L1.88297 18.8477V19.147V19.4464L2.00347 19.6158L2.12397 19.7852L2.34139 19.8926L2.55878 20H2.70594H2.85313L2.98939 19.9555L3.12564 19.9111L3.25167 19.82L3.37766 19.7289L4.79947 17.7648L6.22133 15.8008L6.2835 15.6822L6.34571 15.5637L6.36929 15.4283L6.39286 15.293L6.49279 14.1211L6.59269 12.9492L6.61569 12.7707L6.6387 12.5921L6.31701 12.5082L5.99528 12.4243L5.84708 12.364L5.69888 12.3037L5.71504 12.2906L5.73124 12.2775L6.07197 12.307L6.4127 12.3364L7.53511 12.3795L8.65752 12.4225L9.00827 12.4459L9.35903 12.4692V14.0974V15.7256L9.44922 15.8977L9.53941 16.0697L9.67972 16.1775L9.82002 16.2852L10.0014 16.332L10.1828 16.3787L10.3723 16.351L10.5618 16.3233L10.7321 16.1985L10.9023 16.0736L10.9913 15.8982L11.0802 15.7227L11.4021 13.618L11.7241 11.5134L11.7232 11.2743L11.7223 11.0352L11.6408 10.8594L11.5592 10.6836L11.4312 10.5532L11.3032 10.4229L11.1629 10.3537L11.0226 10.2845L10.9102 10.2582L10.7978 10.2318L9.37097 10.0385L7.94411 9.8452L7.92771 9.82918L7.91132 9.8132L8.01574 9.12L8.12017 8.4268L8.15721 7.9341L8.1942 7.44141L8.19817 7.10938L8.20218 6.77734L8.25586 6.91949L8.30949 7.06164L8.37676 7.44684L8.44402 7.83203L8.45056 7.83633L8.45709 7.84059L9.13434 8.28012L9.81164 8.71965L9.9448 8.77391L10.078 8.82812H10.2671H10.4561L10.6191 8.75066L10.7821 8.6732L12.0047 7.53383L13.2273 6.39445L13.3366 6.23961L13.4459 6.08477L13.4729 5.9443L13.5 5.80383L13.4515 5.62723L13.4031 5.45062L13.3063 5.32695L13.2095 5.20332L13.0354 5.12117L12.8613 5.03906L12.7236 5.0393L12.586 5.03949L12.4406 5.07883L12.2953 5.11816L11.3382 5.90426L10.3812 6.69039L10.3204 6.74145L10.2596 6.79254L8.9174 5.65813L7.57519 4.52375L7.35472 4.42117L7.13425 4.31855L6.6933 4.31L6.25235 4.30141L3.96183 4.60863Z" fill="#D9DEE1"/>
</svg>
