<svg width="15" height="16" viewBox="0 0 15 16" fill="none" xmlns="http://www.w3.org/2000/svg">
<path d="M5.49837 6.3003V5.67743C5.28498 5.64892 5.06803 5.63111 4.84397 5.63111C2.17303 5.6276 0 7.80242 0 10.4792C0 12.1201 0.817998 13.5724 2.06989 14.4516C1.26256 13.5867 0.768206 12.4227 0.768206 11.1484C0.768206 8.51075 2.88077 6.36082 5.49837 6.3003Z" fill="#25F4EE"/>
<path d="M5.61608 13.3624C6.80753 13.3624 7.782 12.412 7.8247 11.2303L7.82826 0.669189H9.75588C9.71674 0.452057 9.69541 0.22781 9.69541 0H7.06359L7.06002 10.5611C7.01737 11.7428 6.04285 12.6932 4.85144 12.6932C4.48156 12.6932 4.13303 12.6007 3.82361 12.4369C4.22194 12.9958 4.87634 13.3624 5.61608 13.3624Z" fill="#25F4EE"/>
<path d="M13.3584 4.25354V3.66625C12.6222 3.66625 11.9393 3.4491 11.3632 3.07178C11.8753 3.65912 12.5688 4.08628 13.3584 4.25354Z" fill="#25F4EE"/>
<path d="M11.3631 3.07184C10.8012 2.42759 10.4633 1.58754 10.4633 0.669189H9.75916C9.9405 1.67297 10.538 2.53438 11.3631 3.07184Z" fill="#FE2C55"/>
<path d="M4.84752 8.26149C3.62764 8.26149 2.63538 9.25461 2.63538 10.4755C2.63538 11.3263 3.11906 12.0666 3.82325 12.4368C3.56007 12.0737 3.40358 11.6288 3.40358 11.1447C3.40358 9.9238 4.39585 8.93068 5.61575 8.93068C5.84336 8.93068 6.06385 8.96982 6.27013 9.03391V6.34295C6.05672 6.31445 5.8398 6.29663 5.61575 6.29663C5.57661 6.29663 5.54104 6.30019 5.50192 6.30019V8.36472C5.29209 8.30063 5.07514 8.26149 4.84752 8.26149Z" fill="#FE2C55"/>
<path d="M13.3581 4.25366V6.30037C11.9924 6.30037 10.7263 5.86258 9.69484 5.12218V10.4793C9.69484 13.1524 7.52186 15.3309 4.84733 15.3309C3.81595 15.3309 2.85569 15.0034 2.0697 14.4517C2.95527 15.402 4.21783 16.0001 5.61557 16.0001C8.28648 16.0001 10.4631 13.8252 10.4631 11.1484V5.79137C11.4945 6.53177 12.7606 6.96956 14.1263 6.96956V4.33556C13.8595 4.33556 13.6035 4.30706 13.3581 4.25366Z" fill="#FE2C55"/>
<path d="M9.69501 10.4792V5.12211C10.7264 5.86251 11.9925 6.3003 13.3583 6.3003V4.2536C12.5687 4.08634 11.8752 3.65918 11.3631 3.07184C10.5379 2.53438 9.944 1.67297 9.75548 0.669189H7.82786L7.8243 11.2302C7.78165 12.412 6.80712 13.3624 5.61574 13.3624C4.87596 13.3624 4.22512 12.9958 3.81968 12.4405C3.11548 12.0667 2.6318 11.3299 2.6318 10.4792C2.6318 9.25829 3.62406 8.26516 4.84395 8.26516C5.07157 8.26516 5.29207 8.30431 5.49835 8.36839V6.30387C2.88076 6.36082 0.768188 8.51076 0.768188 11.1484C0.768188 12.4227 1.26254 13.5831 2.06987 14.4516C2.85586 15.0033 3.81612 15.3308 4.84751 15.3308C7.51846 15.3308 9.69501 13.1524 9.69501 10.4792Z" fill="white"/>
</svg>
