<svg width="16" height="12" viewBox="0 0 16 12" fill="none" xmlns="http://www.w3.org/2000/svg">
<path d="M15.6 2.0999C15.4 1.3999 14.9 0.899903 14.2 0.699903C13 0.399903 7.89999 0.399902 7.89999 0.399902C7.89999 0.399902 2.90001 0.399903 1.60001 0.699903C0.900006 0.899903 0.399997 1.3999 0.199997 2.0999C-3.05474e-06 3.3999 0 5.9999 0 5.9999C0 5.9999 3.03984e-06 8.5999 0.300003 9.8999C0.500003 10.5999 0.999997 11.0999 1.7 11.2999C2.9 11.5999 8 11.5999 8 11.5999C8 11.5999 13 11.5999 14.3 11.2999C15 11.0999 15.5 10.5999 15.7 9.8999C16 8.5999 16 5.9999 16 5.9999C16 5.9999 16 3.3999 15.6 2.0999ZM6.39999 8.3999V3.5999L10.6 5.9999L6.39999 8.3999Z" fill="white"/>
</svg>
